<svg width="92" height="15" viewBox="0 0 92 15" fill="none" xmlns="http://www.w3.org/2000/svg">
<path d="M3.05176e-05 14.8401V0.840092H5.24003C6.4267 0.840092 7.4467 1.03342 8.29999 1.42009C9.15339 1.79342 9.80669 2.34009 10.26 3.06009C10.7267 3.76679 10.96 4.62679 10.96 5.64009C10.96 6.62679 10.7267 7.48009 10.26 8.20009C9.80669 8.90679 9.15339 9.45339 8.29999 9.84009C7.4467 10.2134 6.4267 10.4001 5.24003 10.4001H0.82003L1.48003 9.72009V14.8401H3.05176e-05ZM9.55999 14.8401L5.96003 9.76009H7.55999L11.18 14.8401H9.55999ZM1.48003 9.84009L0.82003 9.14009H5.20003C6.60003 9.14009 7.65999 8.83339 8.37999 8.22009C9.11339 7.60679 9.47999 6.74679 9.47999 5.64009C9.47999 4.52009 9.11339 3.65339 8.37999 3.04009C7.65999 2.42676 6.60003 2.12009 5.20003 2.12009H0.82003L1.48003 1.42009V9.84009ZM18.8132 14.9401C17.7198 14.9401 16.7598 14.7134 15.9332 14.2601C15.1065 13.7934 14.4598 13.1601 13.9932 12.3601C13.5265 11.5468 13.2932 10.6201 13.2932 9.58009C13.2932 8.54009 13.5132 7.62009 13.9532 6.82009C14.4065 6.02009 15.0198 5.39339 15.7932 4.94009C16.5798 4.47339 17.4598 4.24009 18.4332 4.24009C19.4198 4.24009 20.2932 4.46679 21.0532 4.92009C21.8265 5.36009 22.4332 5.98679 22.8732 6.80009C23.3132 7.60009 23.5332 8.52679 23.5332 9.58009C23.5332 9.64679 23.5265 9.72009 23.5132 9.80009C23.5132 9.86679 23.5132 9.94009 23.5132 10.0201H14.3732V8.96009H22.7532L22.1932 9.38009C22.1932 8.62009 22.0265 7.94679 21.6932 7.36009C21.3732 6.76009 20.9332 6.29339 20.3732 5.96009C19.8132 5.62679 19.1665 5.46009 18.4332 5.46009C17.7132 5.46009 17.0665 5.62679 16.4932 5.96009C15.9198 6.29339 15.4732 6.76009 15.1532 7.36009C14.8332 7.96009 14.6732 8.64679 14.6732 9.42009V9.64009C14.6732 10.4401 14.8465 11.1468 15.1932 11.7601C15.5532 12.3601 16.0465 12.8334 16.6732 13.1801C17.3132 13.5134 18.0398 13.6801 18.8532 13.6801C19.4932 13.6801 20.0865 13.5668 20.6332 13.3401C21.1932 13.1134 21.6732 12.7668 22.0732 12.3001L22.8732 13.2201C22.4065 13.7801 21.8198 14.2068 21.1132 14.5001C20.4198 14.7934 19.6532 14.9401 18.8132 14.9401ZM30.9835 14.9401C29.9435 14.9401 29.0101 14.7134 28.1835 14.2601C27.3701 13.7934 26.7301 13.1601 26.2635 12.3601C25.7968 11.5468 25.5635 10.6201 25.5635 9.58009C25.5635 8.52679 25.7968 7.60009 26.2635 6.80009C26.7301 6.00009 27.3701 5.37339 28.1835 4.92009C29.0101 4.46679 29.9435 4.24009 30.9835 4.24009C31.8768 4.24009 32.6835 4.41339 33.4035 4.76009C34.1235 5.10679 34.6901 5.62679 35.1035 6.32009L34.0435 7.04009C33.6835 6.50679 33.2368 6.11339 32.7035 5.86009C32.1701 5.60679 31.5901 5.48009 30.9635 5.48009C30.2168 5.48009 29.5435 5.65339 28.9435 6.00009C28.3435 6.33339 27.8701 6.80679 27.5235 7.42009C27.1768 8.03339 27.0035 8.75339 27.0035 9.58009C27.0035 10.4068 27.1768 11.1268 27.5235 11.7401C27.8701 12.3534 28.3435 12.8334 28.9435 13.1801C29.5435 13.5134 30.2168 13.6801 30.9635 13.6801C31.5901 13.6801 32.1701 13.5534 32.7035 13.3001C33.2368 13.0468 33.6835 12.6601 34.0435 12.1401L35.1035 12.8601C34.6901 13.5401 34.1235 14.0601 33.4035 14.4201C32.6835 14.7668 31.8768 14.9401 30.9835 14.9401ZM37.9368 14.8401V4.34009H39.3568V14.8401H37.9368ZM38.6568 2.02009C38.3634 2.02009 38.1168 1.92009 37.9168 1.72009C37.7168 1.52009 37.6168 1.28009 37.6168 1.00009C37.6168 0.720092 37.7168 0.486762 37.9168 0.300092C38.1168 0.100092 38.3634 9.15527e-05 38.6568 9.15527e-05C38.9501 9.15527e-05 39.1968 0.0934218 39.3968 0.280092C39.5968 0.466762 39.6968 0.700092 39.6968 0.980092C39.6968 1.27342 39.5968 1.52009 39.3968 1.72009C39.2101 1.92009 38.9634 2.02009 38.6568 2.02009ZM47.8679 14.9401C46.8279 14.9401 45.8945 14.7134 45.0679 14.2601C44.2545 13.7934 43.6145 13.1601 43.1479 12.3601C42.6812 11.5468 42.4479 10.6201 42.4479 9.58009C42.4479 8.52679 42.6812 7.60009 43.1479 6.80009C43.6145 6.00009 44.2545 5.37339 45.0679 4.92009C45.8945 4.46679 46.8279 4.24009 47.8679 4.24009C48.7612 4.24009 49.5679 4.41339 50.2879 4.76009C51.0079 5.10679 51.5745 5.62679 51.9879 6.32009L50.9279 7.04009C50.5679 6.50679 50.1212 6.11339 49.5879 5.86009C49.0545 5.60679 48.4745 5.48009 47.8479 5.48009C47.1012 5.48009 46.4279 5.65339 45.8279 6.00009C45.2279 6.33339 44.7545 6.80679 44.4079 7.42009C44.0612 8.03339 43.8879 8.75339 43.8879 9.58009C43.8879 10.4068 44.0612 11.1268 44.4079 11.7401C44.7545 12.3534 45.2279 12.8334 45.8279 13.1801C46.4279 13.5134 47.1012 13.6801 47.8479 13.6801C48.4745 13.6801 49.0545 13.5534 49.5879 13.3001C50.1212 13.0468 50.5679 12.6601 50.9279 12.1401L51.9879 12.8601C51.5745 13.5401 51.0079 14.0601 50.2879 14.4201C49.5679 14.7668 48.7612 14.9401 47.8679 14.9401ZM54.8211 14.8401V9.15527e-05H56.2411V14.8401H54.8211ZM64.8522 14.9401C63.7589 14.9401 62.7989 14.7134 61.9722 14.2601C61.1456 13.7934 60.4989 13.1601 60.0322 12.3601C59.5656 11.5468 59.3322 10.6201 59.3322 9.58009C59.3322 8.54009 59.5522 7.62009 59.9922 6.82009C60.4456 6.02009 61.0589 5.39339 61.8322 4.94009C62.6189 4.47339 63.4989 4.24009 64.4722 4.24009C65.4589 4.24009 66.3322 4.46679 67.0922 4.92009C67.8656 5.36009 68.4722 5.98679 68.9122 6.80009C69.3522 7.60009 69.5722 8.52679 69.5722 9.58009C69.5722 9.64679 69.5656 9.72009 69.5522 9.80009C69.5522 9.86679 69.5522 9.94009 69.5522 10.0201H60.4122V8.96009H68.7922L68.2322 9.38009C68.2322 8.62009 68.0656 7.94679 67.7322 7.36009C67.4122 6.76009 66.9722 6.29339 66.4122 5.96009C65.8522 5.62679 65.2056 5.46009 64.4722 5.46009C63.7522 5.46009 63.1056 5.62679 62.5322 5.96009C61.9589 6.29339 61.5122 6.76009 61.1922 7.36009C60.8722 7.96009 60.7122 8.64679 60.7122 9.42009V9.64009C60.7122 10.4401 60.8856 11.1468 61.2322 11.7601C61.5922 12.3601 62.0856 12.8334 62.7122 13.1801C63.3522 13.5134 64.0789 13.6801 64.8922 13.6801C65.5322 13.6801 66.1256 13.5668 66.6722 13.3401C67.2322 13.1134 67.7122 12.7668 68.1122 12.3001L68.9122 13.2201C68.4456 13.7801 67.8589 14.2068 67.1522 14.5001C66.4589 14.7934 65.6922 14.9401 64.8522 14.9401ZM75.9979 12.0801V3.60009H77.2579V12.0801H75.9979ZM72.2779 8.44009V7.26009H80.9778V8.44009H72.2779Z" fill="white"/>
<path d="M87.0201 12.1801V3.70009H88.2801V12.1801H87.0201ZM83.3001 8.54009V7.36009H92V8.54009H83.3001Z" fill="white"/>
</svg>
